<?xml version="1.0" encoding="UTF-8"?>
<svg id="_レイヤー_2" data-name="レイヤー 2" xmlns="http://www.w3.org/2000/svg" xmlns:xlink="http://www.w3.org/1999/xlink" viewBox="0 0 370.08 113.54">
  <defs>
    <style>
      .cls-1 {
        fill: none;
      }

      .cls-2 {
        clip-path: url(#clippath);
      }

      .cls-3 {
        fill: #707070;
      }

      .cls-4 {
        clip-path: url(#clippath-1);
      }

      .cls-5 {
        isolation: isolate;
      }
    </style>
    <clipPath id="clippath">
      <rect class="cls-1" width="148.32" height="36.39"/>
    </clipPath>
    <clipPath id="clippath-1">
      <path class="cls-1" d="m23.15,22.22c0,.7.57,1.27,1.27,1.27s1.27-.57,1.27-1.27c0-.7-.57-1.27-1.27-1.27,0,0,0,0,0,0-.7,0-1.27.57-1.27,1.27h0M1.2.86c-.08-.01-.16.05-.17.13,0,.01,0,.03,0,.04v7.7c-.01.08.05.16.13.17.01,0,.03,0,.04,0h10.95c.09,0,.17.08.17.17h0v26.34c0,.11.04.17.17.17h16.01c.1.02.19-.05.21-.15.01-.07-.02-.14-.08-.18,0,0-5.38-3.08-6.13-3.5-.05-.03-.09-.09-.09-.15V11.12c-.04-.24.11-.46.34-.52l5.82-1.66c.08-.03.16-.04.24-.05h4.89c.08.01.16-.05.17-.13,0-.01,0-.03,0-.04V1.02c.01-.08-.05-.16-.13-.17-.01,0-.03,0-.04,0H1.2Z"/>
    </clipPath>
  </defs>
  <g id="_レイヤー_1-2" data-name="レイヤー 1">
    <g id="DigiBag" class="cls-5">
      <g class="cls-5">
        <path class="cls-3" d="m74.07,82.12c0,18.78-12.64,30.17-33.11,30.17h-19.4v-47.8h8.1v41.3h11.3c16.29,0,24.74-8.9,24.74-23.68s-8.46-24.03-24.74-24.03h-17l-2.4-6.41h19.4c20.47,0,33.11,11.66,33.11,30.44Z"/>
        <path class="cls-3" d="m92.94,112.38h-8.1v-60.7h8.1v60.7Z"/>
        <path class="cls-3" d="m165.39,80.34v6.05c-1.42,15.04-13.71,27.15-30.62,27.15s-31.33-12.73-31.33-30.97,13.8-31.06,31.33-31.06c7.57,0,14.33,2.14,19.67,6.14l-3.03,8.28c-3.74-4.72-9.52-7.39-16.56-7.39-13.17,0-23.05,9.26-23.05,23.85s9.88,23.76,23.05,23.76c12.28,0,20.65-7.65,21.9-19.67h-22.34l2.4-6.41,28.57.27Z"/>
      </g>
      <g class="cls-5">
        <path class="cls-3" d="m184.25,112.38h-8.1v-60.7h8.1v60.7Z"/>
      </g>
      <g class="cls-5">
        <path class="cls-3" d="m241.03,96.1c0,9.17-7.39,16.29-20.29,16.29h-23.23v-60.7h20.12c13.17,0,19.76,8.54,19.76,15.84,0,6.23-2.67,11.66-8.63,13.62,6.76,1.16,12.28,7.48,12.28,14.95Zm-20.92,9.7c8.01,0,12.82-3.92,12.82-10.5s-5.16-10.86-13.08-10.86h-6.94l2.4-6.5h1.87c7.57,0,11.93-3.65,11.93-9.79s-4.18-9.88-12.1-9.88h-11.3v47.62h14.42v-.09Z"/>
        <path class="cls-3" d="m301.02,112.38h-8.63l-18.69-50.91-18.69,50.91h-8.63l22.7-60.7h9.43l22.52,60.7Zm-21-17.71l2.4,6.5h-17.45l2.4-6.5h12.64Z"/>
      </g>
      <g class="cls-5">
        <path class="cls-3" d="m370.08,80.34v6.05c-1.42,15.04-13.71,27.15-30.62,27.15s-31.33-12.73-31.33-30.97,13.8-31.06,31.33-31.06c7.57,0,14.33,2.14,19.67,6.14l-3.03,8.28c-3.74-4.72-9.52-7.39-16.56-7.39-13.17,0-23.05,9.26-23.05,23.85s9.88,23.76,23.05,23.76c12.28,0,20.65-7.65,21.9-19.67h-22.34l2.4-6.41,28.57.27Z"/>
      </g>
    </g>
    <g id="_グループ_524" data-name="グループ 524">
      <path id="_パス_538" data-name="パス 538" class="cls-3" d="m42.47,13.28h-5.41v-4.31h16.12v4.31h-5.38l-.02,13.18h-5.33l.02-13.18Z"/>
      <g id="_グループ_521" data-name="グループ 521">
        <g class="cls-2">
          <g id="_グループ_520" data-name="グループ 520">
            <path id="_パス_539" data-name="パス 539" class="cls-3" d="m49.91,19.97c.06-3.66,3.08-6.57,6.74-6.51,3.57.06,6.45,2.94,6.51,6.51-.09,3.66-3.13,6.55-6.78,6.46-3.53-.09-6.37-2.93-6.46-6.46m8.58-.07c0-1.47-.72-2.38-1.96-2.38s-1.96.91-1.96,2.38.72,2.45,1.96,2.45,1.96-.96,1.96-2.45"/>
            <path id="_パス_540" data-name="パス 540" class="cls-3" d="m71.67,26.91c-1.2.08-2.39-.34-3.26-1.17h-.12c.03.18.05.37.05.56v.23h-4.27V9.05h4.62v4.99c0,.68-.02.79-.05.82h.12c.8-.65,1.82-.97,2.85-.89,3.24,0,5.71,2.54,5.71,6.43s-2.35,6.51-5.64,6.51m.98-6.53c0-1.49-.82-2.38-2.05-2.38-1.17.01-2.1.97-2.09,2.13,0,.08,0,.16.02.24-.15,1.19.69,2.28,1.89,2.43.06,0,.13.01.19.02,1.24,0,2.05-.96,2.05-2.45"/>
            <path id="_パス_541" data-name="パス 541" class="cls-3" d="m78.25,10.7c0-1.46,1.17-2.65,2.63-2.66.01,0,.02,0,.03,0,1.47,0,2.67,1.2,2.67,2.67,0,1.47-1.2,2.67-2.67,2.67h0c-1.46,0-2.65-1.17-2.66-2.64,0-.02,0-.03,0-.05m.35,3.57h4.66v12.2h-4.66v-12.2Z"/>
            <path id="_パス_542" data-name="パス 542" class="cls-3" d="m91.36,14.27v4.1h-1.68v8.09h-4.66v-12.19h6.34Z"/>
            <path id="_パス_543" data-name="パス 543" class="cls-3" d="m97.91,13.89c1.13-.09,2.24.29,3.08,1.05h.09c-.03-.11-.05-.22-.05-.33v-.35h4.27v12.2h-4.27v-.35c0-.15.02-.3.05-.44h-.09c-.89.82-2.08,1.24-3.29,1.17-3.26,0-5.64-2.59-5.64-6.46s2.52-6.48,5.85-6.48m2.96,6.41c.16-1.14-.63-2.19-1.77-2.36-1.14-.16-2.19.63-2.36,1.77-.03.19-.03.39,0,.58,0,1.49.84,2.45,2.05,2.45,1.19-.04,2.13-1.04,2.09-2.23,0-.07,0-.15-.02-.22"/>
            <path id="_パス_544" data-name="パス 544" class="cls-3" d="m107.58,18.25h-.89v-3.99h.89v-2.96h4.66v2.96h1.96v3.99h-1.96v4.17h1.61v4.03h-6.27v-8.21Z"/>
            <path id="_パス_545" data-name="パス 545" class="cls-3" d="m114.86,20.37c.06-3.66,3.08-6.57,6.74-6.51,3.57.06,6.44,2.94,6.51,6.51-.09,3.66-3.13,6.55-6.78,6.46-3.53-.09-6.37-2.93-6.46-6.46m8.58-.07c0-1.47-.72-2.38-1.96-2.38s-1.96.91-1.96,2.38.72,2.45,1.96,2.45,1.96-.96,1.96-2.45"/>
            <path id="_パス_546" data-name="パス 546" class="cls-3" d="m141.4,14.27v4.1h-7.47v8.09h-4.66v-12.19h12.13Z"/>
            <path id="_パス_547" data-name="パス 547" class="cls-3" d="m37.06,27.79h106.59v-1.05c0-.31.01-.62.05-.93h-.09c-.64.47-1.43.69-2.21.63-2.49.07-4.57-1.88-4.64-4.38,0-.13,0-.25,0-.38v-2.48h4.66v1.93c-.06.62.38,1.17,1,1.24.62.06,1.17-.38,1.24-1,0-.08,0-.15,0-.23v-6.86h4.66v17.56H37.06v-4.03Z"/>
          </g>
        </g>
      </g>
      <g id="_グループ_523" data-name="グループ 523">
        <g class="cls-4">
          <g id="_グループ_522" data-name="グループ 522">
            <rect id="_長方形_248" data-name="長方形 248" class="cls-3" x="17.42" y=".86" width="16.45" height="33.88"/>
            <path id="_パス_548" data-name="パス 548" class="cls-3" d="m28.34,36.39h-15.89c-.27,0-.53-.11-.73-.29-.2-.18-.31-.44-.31-.71V9.74H1.08c-.57,0-1.05-.45-1.07-1.02V1.01C.02.44.5-.02,1.07,0l32.31.13c.57-.02,1.05.44,1.07,1.01l-.02,7.59c-.02.57-.5,1.02-1.07,1.01h-4.62l-5.69,1.76v8.96c.96-.65,2.27-.4,2.92.56.65.96.4,2.27-.56,2.92-.71.48-1.65.48-2.36,0v7.36l5.8,3.2c.49.27.66.89.39,1.37-.18.32-.52.52-.89.52M12.32,8.04c.47,0,.86.38.86.86v25.66c0,.09.08.17.17.17h12.57s.07-.03.07-.07c0-.02-.01-.05-.03-.06l-3.53-1.93c-.59-.32-.85-.39-.85-.85V10.75c0-.39.25-.72.62-.83l5.88-1.7c.22-.08.45-.14.68-.17h4.11c.09,0,.17-.08.17-.17h0V1.88c0-.09-.08-.17-.17-.17H2.05c-.09,0-.17.08-.17.17,0,0,0,0,0,0v5.99c0,.09.08.17.17.17h10.27Z"/>
          </g>
        </g>
      </g>
    </g>
  </g>
</svg>