<?xml version="1.0" encoding="UTF-8"?>
<svg id="_レイヤー_2" data-name="レイヤー 2" xmlns="http://www.w3.org/2000/svg" xmlns:xlink="http://www.w3.org/1999/xlink" viewBox="0 0 314.41 77.14">
  <defs>
    <style>
      .cls-1 {
        fill: none;
      }

      .cls-2 {
        clip-path: url(#clippath);
      }

      .cls-3 {
        fill: #707070;
      }
    </style>
    <clipPath id="clippath">
      <path class="cls-1" d="m54.47,47.1c0,1.48-1.21,2.69-2.69,2.69s-2.69-1.2-2.69-2.69,1.21-2.69,2.69-2.69,2.69,1.2,2.69,2.69ZM71.44,1.81H2.54c-.28,0-.36.17-.36.36v16.32c0,.2.08.36.36.36h23.21c.2,0,.36.16.36.36v55.85c0,.23.09.36.36.36,0,0,33.94,0,33.94,0,.49,0,.57-.53.28-.7,0,0-11.4-6.52-13-7.43-.11-.06-.18-.19-.18-.32V23.58c0-.44.07-.9.73-1.1l12.33-3.51c.11-.04.4-.11.5-.11h10.37c.28,0,.36-.16.36-.36V2.17c0-.2-.09-.36-.36-.36Z"/>
    </clipPath>
  </defs>
  <g id="_編集モード" data-name="編集モード">
    <g>
      <g>
        <path class="cls-3" d="m90.04,28.15h-11.47v-9.13h34.17v9.13h-11.41l-.03,27.94h-11.29l.03-27.94Z"/>
        <path class="cls-3" d="m105.79,42.33c0-8.11,5.83-13.74,14.04-13.74s14.04,5.63,14.04,13.74-5.83,13.69-14.04,13.69-14.04-5.63-14.04-13.69Zm18.19-.15c0-3.11-1.53-5.04-4.15-5.04s-4.15,1.93-4.15,5.04,1.53,5.19,4.15,5.19,4.15-2.03,4.15-5.19Z"/>
        <path class="cls-3" d="m151.92,57.04c-2.87,0-5.29-.74-6.92-2.47h-.25c.05.3.1.74.1,1.19v.49h-9.04V19.18h9.79v10.58c0,1.43-.05,1.68-.1,1.73h.25c1.28-1.28,3.41-1.88,6.03-1.88,6.87,0,12.11,5.39,12.11,13.64s-4.99,13.79-11.96,13.79Zm2.08-13.84c0-3.16-1.73-5.04-4.35-5.04s-4.4,1.88-4.4,5.04,1.88,5.19,4.4,5.19,4.35-2.03,4.35-5.19Z"/>
        <path class="cls-3" d="m165.88,22.68c0-3.11,2.47-5.63,5.63-5.63s5.73,2.52,5.73,5.63-2.57,5.68-5.73,5.68-5.63-2.52-5.63-5.68Zm.74,33.41v-25.85h9.88v25.85h-9.88Z"/>
        <path class="cls-3" d="m193.65,30.24v8.7h-3.56v17.15h-9.88v-25.85h13.44Z"/>
        <path class="cls-3" d="m207.54,29.45c2.87,0,5.04.69,6.52,2.22h.2c-.05-.15-.1-.4-.1-.69v-.74h9.04v25.85h-9.04v-.74c0-.35.05-.74.1-.94h-.2c-1.68,1.68-4.05,2.47-6.97,2.47-6.92,0-11.96-5.49-11.96-13.69s5.34-13.74,12.41-13.74Zm6.28,13.59c0-3.11-1.83-5.04-4.4-5.04s-4.35,1.93-4.35,5.04,1.78,5.19,4.35,5.19,4.4-2.03,4.4-5.19Z"/>
        <path class="cls-3" d="m228.06,38.69h-1.88v-8.45h1.88v-6.28h9.88v6.28h4.15v8.45h-4.15v8.85h3.41v8.55h-13.3v-17.4Z"/>
        <path class="cls-3" d="m243.48,43.19c0-8.11,5.83-13.74,14.04-13.74s14.04,5.63,14.04,13.74-5.83,13.69-14.04,13.69-14.04-5.63-14.04-13.69Zm18.19-.15c0-3.11-1.53-5.04-4.15-5.04s-4.15,1.93-4.15,5.04,1.53,5.19,4.15,5.19,4.15-2.03,4.15-5.19Z"/>
        <path class="cls-3" d="m299.74,30.24v8.7h-15.83v17.15h-9.89v-25.85h25.71Z"/>
        <path class="cls-3" d="m78.57,58.91h225.96v-2.22c0-.94.05-1.58.1-1.98h-.2c-1.14.84-2.32,1.33-4.7,1.33-5.83,0-9.84-4.25-9.84-10.08v-5.26h9.88v4.08c0,1.43.94,2.62,2.37,2.62s2.37-1.19,2.37-2.62v-14.53h9.88v37.22H78.57v-8.55Z"/>
      </g>
      <g class="cls-2">
        <rect class="cls-3" x="36.92" y="1.81" width="34.88" height="71.81" transform="translate(108.72 75.44) rotate(180)"/>
        <path class="cls-3" d="m60.07,77.14s-.07,0-.11,0H26.48s-.05,0-.08,0h0c-.58-.01-1.14-.23-1.55-.62-.43-.4-.66-.94-.66-1.51V20.64s-21.88-.02-21.88-.02C1.04,20.62.02,19.66.02,18.48l-.02-16.34C0,.96,1.02,0,2.28,0l68.5.27c1.25,0,2.27.96,2.27,2.14l-.04,16.09c0,1.17-1.02,2.13-2.28,2.13h-9.79s-12.06,3.72-12.06,3.72v19c.71-.48,1.57-.77,2.5-.77,2.47,0,4.47,2,4.47,4.46s-2.01,4.46-4.47,4.46c-.93,0-1.79-.28-2.51-.77v15.6s12.28,6.78,12.28,6.78c.88.49,1.29,1.54,1,2.51-.28.9-1.11,1.5-2.07,1.5ZM26.11,17.04c1,0,1.81.81,1.81,1.81v54.4c0,.2.16.36.36.36h26.64c.15,0,.2-.2.07-.27l-7.49-4.08c-1.25-.68-1.81-.83-1.81-1.81V22.78c0-.82.54-1.54,1.32-1.76l12.46-3.61c.22-.08,1.1-.36,1.45-.36h8.7c.2,0,.36-.16.36-.36V3.99c0-.2-.16-.36-.36-.36H4.35c-.2,0-.36.16-.36.36v12.7c0,.2.16.36.36.36h21.76Zm22.75,50.2h0s0,0,0,0Zm20.59-48.75h0s0,0,0,0Zm-65.86-.02h0s0,0,0,0Zm-1.28-1.41h0,0Z"/>
      </g>
    </g>
  </g>
</svg>