<?xml version="1.0" encoding="UTF-8"?>
<svg id="_レイヤー_2" data-name="レイヤー 2" xmlns="http://www.w3.org/2000/svg" viewBox="0 0 63.12 57.61">
  <defs>
    <style>
      .cls-1 {
        fill: #fff;
      }
    </style>
  </defs>
  <g id="_レイヤー_1-2" data-name="レイヤー 1">
    <g>
      <path class="cls-1" d="m61.51,27.12l-11.3-8.62.7-14.2c.04-.9-.21-1.78-.72-2.52-1.29-1.86-3.84-2.33-5.7-1.05l-11.7,8.09-13.29-5.04c-.84-.32-1.76-.35-2.61-.1-2.17.64-3.41,2.92-2.77,5.1l4.07,13.62-8.91,11.08c-.56.7-.88,1.57-.9,2.47-.05,2.26,1.74,4.14,4,4.2l14.21.33,7.78,11.9c.75,1.16,2.04,1.86,3.42,1.85,1.74,0,3.3-1.1,3.88-2.74l4.71-13.42,13.71-3.73c.87-.24,1.63-.75,2.17-1.46,1.38-1.8,1.04-4.37-.76-5.75Zm-2.33,3.79l-15.53,4.22-5.33,15.18c-.04.11-.12.21-.22.27-.25.16-.59.09-.75-.16l-8.81-13.46-16.09-.38c-.12,0-.24-.05-.33-.12-.23-.19-.27-.53-.08-.76l10.09-12.54-4.61-15.41s-.02-.09-.02-.13c-.01-.3.22-.56.53-.57h0c.07,0,.14.01.2.04l15.04,5.72,13.23-9.15c.17-.12.39-.13.57-.03.18.1.29.29.28.5l-.79,16.07,12.79,9.76c.09.07.16.17.19.29.08.29-.09.59-.38.66Z"/>
      <path class="cls-1" d="m26.73,47.71c-1.48-.48-2.65-1.64-3.12-3.12-.42-1.03-1.43-1.7-2.54-1.7-1.11,0-2.12.67-2.54,1.7-.48,1.48-1.64,2.65-3.12,3.12-.68.28-1.21.82-1.49,1.49-.58,1.4.09,3.01,1.49,3.59,1.48.48,2.65,1.64,3.12,3.12.42,1.03,1.43,1.71,2.54,1.7,1.11,0,2.12-.67,2.54-1.7.48-1.48,1.64-2.65,3.12-3.12.68-.28,1.22-.82,1.49-1.49.58-1.4-.09-3.01-1.49-3.59Zm-5.66,5.32c-.67-1.16-1.63-2.11-2.78-2.78,1.15-.67,2.11-1.63,2.78-2.78.67,1.16,1.63,2.11,2.78,2.78-1.15.67-2.11,1.63-2.78,2.78Z"/>
      <polygon class="cls-1" points="7.36 27.32 7.36 27.32 7.36 27.32 7.36 27.32"/>
      <path class="cls-1" d="m9.9,25.62c.48-1.49,1.64-2.65,3.12-3.12.68-.28,1.21-.82,1.49-1.49.58-1.4-.09-3.01-1.49-3.59-1.48-.48-2.65-1.64-3.12-3.12-.42-1.03-1.42-1.7-2.54-1.7-1.11,0-2.12.67-2.54,1.7-.48,1.48-1.64,2.65-3.12,3.12-.68.28-1.21.82-1.49,1.49-.58,1.4.09,3.01,1.49,3.59,1.48.48,2.65,1.64,3.12,3.12.42,1.03,1.43,1.7,2.54,1.7,1.11,0,2.12-.67,2.54-1.7Zm-2.54-2.88c-.67-1.16-1.63-2.12-2.78-2.78,1.16-.67,2.11-1.63,2.78-2.78.67,1.16,1.63,2.12,2.78,2.78-1.16.67-2.12,1.63-2.78,2.78Z"/>
    </g>
  </g>
</svg>