<?xml version="1.0" encoding="UTF-8"?>
<svg id="_レイヤー_2" data-name="レイヤー 2" xmlns="http://www.w3.org/2000/svg" viewBox="0 0 539.28 579.49">
  <defs>
    <style>
      .cls-1 {
        fill: #A5A5A5;
      }
    </style>
  </defs>
  <g id="_瀧_1" data-name="瀧 1">
    <g>
      <path class="cls-1" d="m.04,103.83v392.78c0,3.2-.09,6.42.07,9.62,1.29,26.6,16.31,51.97,40.26,64.32,19.47,10.03,39.62,8.9,60.61,8.9h244.33c5.67,0,11.26.11,16.9-.6,28.41-3.55,51.64-21.39,62.46-47.89,5.36-13.15,5.28-26.83,5.28-40.7v-72.36c0-10.04-8.83-19.66-19.19-19.19-10.4.47-19.19,8.43-19.19,19.19v72.36c0,4.08.01,8.16,0,12.23,0,2.14-.13,4.26-.26,6.4-.03.12-.07.25-.11.4-.23.87-.37,1.77-.58,2.64-.32,1.3-.68,2.59-1.1,3.86-.27.84-.56,1.68-.88,2.51-.77,1.96-.63,1.65.41-.92.28,1.52-2.95,5.63-3.77,6.91-.49.77-1.42,2.77-2.22,3.23.47-.61.93-1.22,1.4-1.82-.55.67-1.11,1.34-1.69,1.98-1.75,1.96-3.66,3.68-5.58,5.46-.62.58-.91.85-.98.94-.94.56-1.98,1.07-2.54,1.4-1.12.68-2.27,1.32-3.43,1.92-.39.2-.78.39-1.18.59-1.9.87-1.58.77.97-.33-1.65,1.41-5.53,1.94-7.61,2.45-.29.07-1.13.35-1.97.57-.78.09-1.55.17-2.34.23-1.41.1-2.81.14-4.22.15-42.13.43-84.29,0-126.42,0H79.65c-1.18,0-2.35.01-3.53,0-.96,0-1.9-.02-2.85-.07-.82-.04-1.93,0-2.91-.1-.5-.19-1.07-.39-1.47-.48-2.63-.58-5.14-1.43-7.69-2.28-.08-.05-.17-.1-.27-.15-1.53-.85-3.11-1.6-4.61-2.51-1.12-.68-2.18-1.44-3.28-2.15-.72-.46-1.02-.54-1.03-.44-1.48-1.29-3.1-3.38-3.91-4.25-.23-.25-.71-.68-1.18-1.15-.51-.69-1.01-1.39-1.49-2.11-.99-1.47-4.81-6.22-4.48-8.01.3.72.59,1.44.89,2.16-.33-.82-.64-1.65-.93-2.48-.44-1.26-.83-2.54-1.18-3.83-.23-.86-.45-1.74-.64-2.61-.1-.47-.35-1.15-.57-1.69-.26-1.84-.06-4.02-.08-5.68-.09-9.96,0-19.92,0-29.88V85c0-2.82-.03-5.65,0-8.47,0-.04,0-.07,0-.11.01-1.4.05-2.79.15-4.18.04-.46.08-.92.12-1.37.24-2.17.19-1.82-.14,1.04-.52-.83,1.25-5.64,1.53-6.56.35-1.19.78-2.35,1.18-3.52.27-.57.54-1.15.83-1.71,1.21-2.34,2.65-4.5,4.07-6.71.02-.03.04-.06.05-.09.05-.05.09-.09.14-.15.89-.95,1.72-1.95,2.63-2.89.91-.93,1.85-1.83,2.82-2.7.06-.05.27-.23.53-.46.55-.41,1.59-1.22,1.76-1.33,1.45-.97,2.94-1.88,4.48-2.72.28-.15.9-.56,1.55-.94.76-.3,1.53-.6,2.31-.87,2.55-.89,5.15-1.43,7.76-2.1.15-.04.29-.08.41-.11,1.35-.09,2.69-.21,4.04-.24.54-.01,1.01-.01,1.52-.02,1.29-.01,2.57,0,3.86,0h262.88c3.67,0,7.34-.04,11.01,0,1.83.02,3.64.15,5.46.26.12.03.26.07.41.11,1.3.33,2.63.56,3.94.92,1.29.35,2.57.74,3.83,1.18.42.15.83.3,1.25.45,1.96.77,1.65.63-.92-.41,1.78-.32,6.54,3.5,8.01,4.48.09.06.35.21.66.4.55.46,1.1.92,1.64,1.39,1.96,1.75,3.67,3.67,5.46,5.58.05.05.09.1.14.15.02.03.03.06.06.09.71,1.1,1.47,2.16,2.15,3.28.68,1.12,1.32,2.27,1.92,3.43.29.56.55,1.12.82,1.69.75,2.25,1.5,4.47,2.04,6.79.06.27.26.87.44,1.5.08.72.16,1.43.21,2.15.14,1.88.15,3.76.15,5.64,0,4.41,0,8.82,0,13.23v70.84c0,10.04,8.83,19.66,19.19,19.19,10.4-.47,19.19-8.43,19.19-19.19v-73.81c0-15.69-.94-30.45-7.75-45.04-11.49-24.61-36.19-39.86-62.71-42.43-13.89-1.35-28.33-.27-42.25-.27H79.16c-14.42,0-28.47,2.89-41.09,10.16C14.62,24.06.33,49.54.04,76.42-.05,85.56.04,94.7.04,103.83Zm377.97,428.73c-.23.45-.85.92-1.57,1.37.49-.39,1.53-1.28,1.57-1.37Zm-17.64,8.14c-.85.22-1.68.39-1.93.23.64-.08,1.29-.16,1.93-.23Zm-313.48-13.22c-.64-.63-1.3-1.34-1.38-1.79.46.6.92,1.19,1.38,1.79ZM391.44,71.91c-.07-.58-.14-1.15-.21-1.73.2.74.36,1.48.21,1.73Zm-13.42-24.61c-.43-.33-.86-.66-1.29-.99.54.34,1.16.75,1.29.99Zm-317.85-5.18c.77-.45,1.58-.87,1.95-.8-.65.27-1.3.54-1.95.8Z"/>
      <path class="cls-1" d="m255.14,270.74h-5.11c18.8-19.87,37.6-39.74,56.39-59.61,4.13-4.36,8.25-8.72,12.38-13.09,6.9-7.3,7.78-20,0-27.14-7.49-6.87-19.77-7.79-27.14,0-29.13,30.79-58.26,61.58-87.39,92.38-4.13,4.36-8.25,8.72-12.38,13.09-7.27,7.69-7.3,19.43,0,27.14,29.13,30.79,58.26,61.58,87.39,92.38,4.13,4.36,8.25,8.72,12.38,13.09,6.92,7.31,20.26,7.49,27.14,0,7.19-7.84,7.38-19.35,0-27.14-22.93-24.23-45.85-48.46-68.78-72.7h270.04c10.04,0,19.66-8.83,19.19-19.19-.47-10.4-8.43-19.19-19.19-19.19H255.14Z"/>
    </g>
  </g>
</svg>