<?xml version="1.0" encoding="UTF-8"?>
<svg id="_レイヤー_2" data-name="レイヤー 2" xmlns="http://www.w3.org/2000/svg" xmlns:xlink="http://www.w3.org/1999/xlink" viewBox="0 0 106.76 100.87">
  <defs>
    <style>
      .cls-1 {
        fill: none;
      }

      .cls-2 {
        clip-path: url(#clippath);
      }

      .cls-3 {
        fill: #fff;
        stroke: #fff;
      }
    </style>
    <clipPath id="clippath">
      <rect class="cls-1" x=".5" y=".32" width="106.26" height="100.05"/>
    </clipPath>
  </defs>
  <g id="_グループ_684" data-name="グループ 684">
    <g class="cls-2">
      <g id="_グループ_578" data-name="グループ 578">
        <path id="_パス_769" data-name="パス 769" class="cls-3" d="m91.67,100.37H15.09c-4.93.09-9.01-3.83-9.12-8.76v-47.3c.02-.99.84-1.77,1.82-1.75h91.17c.99-.02,1.8.77,1.82,1.75v47.3c-.11,4.93-4.19,8.85-9.12,8.76M9.61,46.06v45.55c.07,2.96,2.51,5.31,5.47,5.26h76.59c2.96.05,5.4-2.3,5.47-5.26v-45.55H9.61Z"/>
        <path id="_パス_770" data-name="パス 770" class="cls-3" d="m104.43,46.06H2.32c-.98.02-1.8-.76-1.82-1.74v-14.03c.11-4.93,4.19-8.85,9.12-8.76h87.52c4.93-.09,9.01,3.83,9.12,8.76v14.03c-.02.99-.84,1.77-1.82,1.75m-100.29-3.52h98.46v-12.26c-.07-2.96-2.51-5.31-5.47-5.26H9.62c-2.96-.05-5.41,2.3-5.47,5.26v12.26Z"/>
        <path id="_パス_771" data-name="パス 771" class="cls-3" d="m66.14,100.37h-25.53c-.99.02-1.8-.77-1.82-1.75V23.28c.02-.99.84-1.77,1.82-1.75h25.53c.99-.02,1.8.77,1.82,1.75v75.33c-.02.99-.84,1.77-1.82,1.75m-23.7-3.5h21.88V25.04h-21.88v71.83Z"/>
        <path id="_パス_772" data-name="パス 772" class="cls-3" d="m53.38,25.04H18.73c-.97.04-1.78-.72-1.82-1.69-.04-.97.72-1.78,1.69-1.82.04,0,.09,0,.13,0h1.98c-2.42-2.27-3.8-5.44-3.8-8.76-.05-6.73,5.37-12.23,12.1-12.27.18,0,.37,0,.55,0,13.96,0,24.99,21.1,25.45,22,.28.54.25,1.19-.08,1.7-.34.52-.92.83-1.54.83m-23.81-3.51h20.74c-3.25-5.39-11.59-17.52-20.74-17.52-4.74-.24-8.78,3.41-9.02,8.15-.01.21-.01.41,0,.62.07,4.9,4.1,8.82,9,8.76"/>
        <path id="_パス_773" data-name="パス 773" class="cls-3" d="m88.02,25.04h-34.64c-.62,0-1.2-.31-1.54-.83-.33-.51-.36-1.16-.08-1.7.45-.9,11.48-22,25.44-22,6.73-.26,12.39,4.99,12.64,11.71,0,.18,0,.37,0,.55,0,3.32-1.38,6.49-3.8,8.76h1.98c.97-.04,1.78.72,1.82,1.69.04.97-.72,1.78-1.69,1.82-.04,0-.09,0-.13,0m-31.57-3.51h20.74c4.9.06,8.93-3.86,9-8.76.1-4.74-3.67-8.67-8.41-8.77-.2,0-.39,0-.59,0-9.15,0-17.49,12.13-20.74,17.52"/>
      </g>
    </g>
  </g>
</svg>