<?xml version="1.0" encoding="UTF-8"?>
<svg id="_レイヤー_2" data-name="レイヤー 2" xmlns="http://www.w3.org/2000/svg" viewBox="0 0 144.76 56.78">
  <defs>
    <style>
      .cls-1 {
        fill: #fff;
      }
    </style>
  </defs>
  <g id="_レイヤー_1-2" data-name="レイヤー 1">
    <g id="_グループ_727" data-name="グループ 727">
      <g id="_グループ_726" data-name="グループ 726">
        <g>
          <path class="cls-1" d="m119.01,35.54c6.88,0,12.46-5.59,12.47-12.47,0-1.02-.83-1.84-1.84-1.84s-1.84.83-1.84,1.84c0,4.85-3.93,8.78-8.78,8.78s-8.78-3.93-8.78-8.78c0-1.02-.83-1.84-1.84-1.84s-1.84.83-1.84,1.84c0,6.88,5.58,12.46,12.47,12.47Z"/>
          <path class="cls-1" d="m144.47,11.46s-.02-.03-.03-.05c-.01-.02-.02-.04-.03-.05l-7.85-10.6c-.35-.47-.9-.75-1.48-.75h-.78s-.02,0-.03,0h-31.31c-.58,0-1.13.28-1.48.75l-7.85,10.6s0,0,0,.01c-.22.3-.36.68-.36,1.08,0,0,0,0,0,0,0,0,0,0,0,0,0,0,0,0,0,.01v37.16c0,3.95,3.21,7.15,7.16,7.16h37.18c3.95,0,7.15-3.21,7.16-7.16V12.52c.01-.37-.08-.74-.29-1.07Zm-40.58-7.77h25.19s.02,0,.03,0h5.04l5.11,6.91h-40.48l5.11-6.91Zm37.19,45.94c0,1.91-1.55,3.46-3.47,3.47h-37.18c-1.91,0-3.46-1.55-3.47-3.47V14.29h44.12v35.34Z"/>
        </g>
        <path class="cls-1" d="m83.68,29.18s.04-.07.06-.1c.05-.08.1-.17.14-.26.02-.05.03-.11.05-.16.02-.08.05-.15.07-.23.02-.1.03-.21.03-.31,0-.03,0-.06,0-.09,0,0,0-.02,0-.02,0-.13-.01-.26-.04-.39-.01-.06-.03-.11-.05-.17-.02-.07-.04-.15-.07-.22-.02-.06-.06-.11-.09-.17-.03-.07-.06-.13-.11-.19-.05-.08-.12-.15-.18-.22-.03-.03-.05-.07-.08-.1l-13.66-13.66c-.39-.4-.93-.62-1.49-.62-.56,0-1.09.22-1.49.61-.82.82-.83,2.15,0,2.98l10.07,10.07h-22.25c-1.16,0-2.1.94-2.1,2.1s.94,2.1,2.1,2.1h22.26l-10.08,10.07c-.82.82-.82,2.15,0,2.98.82.82,2.15.82,2.98,0l13.66-13.66c.1-.1.19-.21.27-.33Z"/>
        <g id="_楕円形_22" data-name="楕円形 22">
          <path class="cls-1" d="m21.71,51.81C9.74,51.81,0,42.08,0,30.11S9.74,8.4,21.71,8.4s21.71,9.74,21.71,21.71-9.74,21.71-21.71,21.71Zm0-39.42c-9.76,0-17.71,7.94-17.71,17.71s7.94,17.71,17.71,17.71,17.71-7.94,17.71-17.71-7.94-17.71-17.71-17.71Z"/>
        </g>
      </g>
    </g>
  </g>
</svg>