<?xml version="1.0" encoding="UTF-8"?>
<svg id="_レイヤー_2" data-name="レイヤー 2" xmlns="http://www.w3.org/2000/svg" viewBox="0 0 62.76 85.56">
  <defs>
    <style>
      .cls-1 {
        fill: #fff;
      }
    </style>
  </defs>
  <g id="_レイヤー_1-2" data-name="レイヤー 1">
    <g>
      <path class="cls-1" d="m62.54,40.78s0-.03,0-.04c0-.02,0-.04-.01-.06-.08-.23-.19-.45-.33-.65l-9.44-22.76c-.42-.57-1.09-.91-1.81-.91h-7.5c-1.24,0-2.25,1.01-2.25,2.25s1.01,2.25,2.25,2.25h6.37l6.31,18.45H6.64l6.31-18.45h6.37c1.24,0,2.25-1.01,2.25-2.25s-1.01-2.25-2.25-2.25h-7.51c-.71,0-1.38.34-1.81.91L.56,40.03c-.14.2-.25.42-.33.65,0,.02,0,.04-.01.06,0,.02,0,.05-.02.07-.13.28-.2.59-.2.92v35.12c0,4.82,3.91,8.72,8.72,8.72h45.32c4.82,0,8.72-3.91,8.72-8.72v-35.12c0-.34-.09-.66-.23-.95Zm-8.49,40.29H8.72c-2.33,0-4.22-1.89-4.23-4.23v-32.87h53.77v32.87c0,2.33-1.89,4.22-4.22,4.23Z"/>
      <path class="cls-1" d="m19.98,23.27l-.02.02c-.37.4-.58.93-.59,1.47-.01.56.21,1.1.62,1.49l8.63,8.65c.62.63,1.47.98,2.36.98.87,0,1.71-.35,2.31-.98l8.93-8.96c.4-.39.62-.93.62-1.49,0-.56-.22-1.1-.62-1.49-.82-.82-2.15-.82-2.97,0h-.02s-6.03,6.19-6.03,6.19l.24-17.44c0-1.99.8-3.9,2.21-5.3,1.4-1.42,3.31-2.22,5.3-2.21h7.21c1.16,0,2.1-.94,2.1-2.1s-.94-2.1-2.1-2.1h-7.22c-6.47.02-11.71,5.26-11.72,11.72l-.24,17.5-6.04-5.95c-.39-.4-.93-.62-1.49-.62-.56,0-1.1.22-1.49.62Z"/>
    </g>
  </g>
</svg>