<?xml version="1.0" encoding="UTF-8"?>
<svg id="_レイヤー_2" data-name="レイヤー 2" xmlns="http://www.w3.org/2000/svg" viewBox="0 0 61.28 94.39">
  <defs>
    <style>
      .cls-1 {
        fill: #fff;
      }
    </style>
  </defs>
  <g id="_レイヤー_1-2" data-name="レイヤー 1">
    <g>
      <path class="cls-1" d="m43.15,52.06c-1.21.04-2.16,1.06-2.12,2.27-.09,5.64-4.64,10.18-10.27,10.27-5.76.09-10.51-4.51-10.6-10.27,0-.05,0-.1,0-.15-.04-1.21-1.06-2.16-2.27-2.12-1.21.04-2.16,1.06-2.12,2.27,0,8.18,6.64,14.81,14.82,14.82,8.18,0,14.81-6.64,14.82-14.82,0-.05,0-.1,0-.15-.04-1.21-1.06-2.16-2.27-2.12Z"/>
      <path class="cls-1" d="m61.28,41.61c-.02-.64-.32-1.21-.78-1.59l-9.04-12.22c-.41-.56-1.07-.89-1.76-.89h-7.1s-.1,0-.15,0c-1.21.04-2.16,1.06-2.12,2.27.04,1.21,1.06,2.16,2.27,2.12h5.98l6.08,8.2H6.54l6.08-8.21h5.99s.1,0,.15,0c1.21-.04,2.16-1.06,2.12-2.27-.04-1.21-1.06-2.16-2.27-2.12h-7.1c-.69,0-1.35.33-1.76.89L.43,40.39s0,.02-.01.02c-.12.17-.22.35-.29.55-.01.03-.02.06-.03.1-.06.2-.1.41-.1.63v44.19c0,4.7,3.81,8.5,8.51,8.51h44.19c4.7,0,8.5-3.81,8.51-8.51v-43.67c.05-.19.08-.39.07-.6Zm-8.58,48.39H8.5c-2.27,0-4.12-1.85-4.12-4.12v-42h52.44v42c0,2.27-1.85,4.12-4.12,4.12Z"/>
      <path class="cls-1" d="m14.83,17.98c.86.86,2.24.86,3.1,0l10.48-10.48v23.16s0,.1,0,.15c.04,1.21,1.06,2.16,2.27,2.12,1.21-.04,2.16-1.06,2.12-2.27V7.48l10.49,10.49c.85.81,2.18.81,3.03,0,.88-.84.91-2.23.07-3.1L32.15.64c-.86-.86-2.24-.86-3.1,0l-14.23,14.24c-.41.41-.64.97-.64,1.55h.02c0,.58.23,1.14.64,1.55Z"/>
    </g>
  </g>
</svg>