<?xml version="1.0" encoding="UTF-8"?>
<svg id="_レイヤー_2" data-name="レイヤー 2" xmlns="http://www.w3.org/2000/svg" viewBox="0 0 74.2 64.96">
  <defs>
    <style>
      .cls-1 {
        fill: #fff;
      }
    </style>
  </defs>
  <g id="_レイヤー_1-2" data-name="レイヤー 1">
    <g>
      <path class="cls-1" d="m65.47,34.76c1.54-2.01,1.15-4.9-.86-6.44l-11.64-8.88.72-14.62c.05-1-.24-2.01-.81-2.84-1.44-2.08-4.31-2.61-6.39-1.16l-12.04,8.32-13.68-5.2c-.94-.36-1.99-.4-2.95-.11-1.18.35-2.14,1.14-2.73,2.22s-.71,2.32-.36,3.5l4.19,14.02-9.17,11.41c-.63.78-.99,1.77-1.01,2.77-.03,1.23.42,2.39,1.27,3.28.85.89,1.99,1.39,3.22,1.42l14.63.34,8.02,12.25c.85,1.3,2.28,2.08,3.83,2.08h0s0,0,0,0c1.95,0,3.69-1.23,4.34-3.08l4.85-13.81,14.12-3.84c.97-.26,1.84-.85,2.45-1.65Zm-35.13,3.89l-.09-.15-16.92-.4c-.05,0-.1-.02-.14-.05-.05-.04-.08-.1-.09-.16s.01-.12.05-.17l10.61-13.19-4.86-16.27c0-.06.02-.13.06-.17.04-.05.1-.07.16-.08.03,0,.06,0,.09.02l15.66,5.95.16.06,13.93-9.64c.07-.05.16-.05.25,0,.08.04.12.12.11.22l-.82,16.73v.17s13.45,10.28,13.45,10.28c.04.03.07.08.08.13.03.13-.04.25-.17.29l-16.34,4.44-5.61,15.97s-.05.09-.09.12c-.05.03-.11.05-.18.03-.06-.01-.11-.05-.15-.1l-9.17-14.02Zm9.36,18.15h0s0,0,0,0Z"/>
      <path class="cls-1" d="m73.56,61.24l-17.89-17.89c-.82-.82-2.26-.82-3.08,0s-.85,2.23,0,3.08l17.89,17.89c.41.41.97.64,1.54.64h0c.58,0,1.13-.23,1.54-.64.41-.41.64-.96.64-1.54s-.23-1.13-.64-1.54Z"/>
      <path class="cls-1" d="m28.27,49.7c-1.44-.46-2.58-1.6-3.05-3.06-.49-1.2-1.64-1.98-2.93-1.98-.01,0-.02,0-.03,0-1.3,0-2.45.77-2.95,2-.46,1.44-1.6,2.58-3.06,3.05-.78.32-1.41.95-1.74,1.74-.67,1.63.11,3.49,1.76,4.17,1.44.46,2.58,1.6,3.05,3.06.49,1.2,1.64,1.98,2.94,1.98h.03c1.3,0,2.45-.78,2.95-2,.46-1.44,1.6-2.58,3.06-3.05.78-.32,1.41-.95,1.73-1.73.67-1.63-.11-3.5-1.76-4.18Zm-3.72,2.96c-.9.6-1.67,1.38-2.28,2.28-.6-.9-1.37-1.67-2.27-2.28.9-.6,1.67-1.37,2.27-2.27.6.9,1.38,1.67,2.28,2.27Z"/>
      <path class="cls-1" d="m10.96,27.1c.46-1.44,1.6-2.58,3.06-3.05.79-.33,1.4-.94,1.73-1.73.33-.79.33-1.66,0-2.44-.33-.79-.94-1.4-1.76-1.74-1.44-.46-2.58-1.6-3.05-3.06-.49-1.2-1.64-1.98-2.93-1.98-.01,0-.02,0-.03,0-1.3,0-2.45.77-2.95,2-.46,1.44-1.6,2.58-3.06,3.05-.78.32-1.41.95-1.73,1.73-.33.79-.32,1.65,0,2.44.33.79.94,1.4,1.75,1.73,1.44.46,2.58,1.6,3.05,3.07.49,1.2,1.64,1.98,2.94,1.98h.15s0,0,0,0c1.24-.05,2.34-.81,2.82-2Zm-.68-5.99c-.9.6-1.67,1.38-2.28,2.28-.6-.9-1.38-1.67-2.27-2.28.9-.6,1.67-1.37,2.27-2.27.6.9,1.38,1.67,2.28,2.27Z"/>
    </g>
  </g>
</svg>